<svg width="46" height="46" viewBox="0 0 46 46" version="1.1" xmlns="http://www.w3.org/2000/svg" xmlns:xlink="http://www.w3.org/1999/xlink">
<title>trowel</title>
<desc>Created using Figma</desc>
<g id="Canvas" transform="translate(-1025 -2329)">
<g id="trowel">
<g id="Group">
<g id="Group">
<g id="Vector">
<use xlink:href="#path0_fill" transform="translate(1025 2329)" fill="#FFFFFF"/>
</g>
</g>
</g>
<g id="Group">
<g id="Group">
<g id="Vector">
<use xlink:href="#path1_fill" transform="translate(1054.82 2336.23)" fill="#FFFFFF"/>
</g>
</g>
</g>
<g id="Group">
<g id="Group">
<g id="Vector">
<use xlink:href="#path2_fill" transform="translate(1037.35 2337.3)" fill="#FFFFFF"/>
</g>
</g>
</g>
</g>
</g>
<defs>
<path id="path0_fill" d="M 45.2996 0.700443C 44.6644 0.0653365 43.7384 -0.158914 42.8832 0.114571L 9.20354 10.893C 8.40393 11.1489 7.80845 11.7887 7.6107 12.6047C 7.41295 13.4206 7.64915 14.2622 8.24284 14.8558L 17.9475 24.5606L 13.5444 28.9638L 12.979 28.3984C 12.6211 28.0407 12.041 28.0407 11.683 28.3984L 1.22381 38.8574C -0.407935 40.4892 -0.407935 43.1443 1.22381 44.7762C 2.03977 45.5921 3.1116 46 4.18325 46C 5.255 46 6.32683 45.5921 7.1427 44.7762L 17.6019 34.3171C 17.9597 33.9592 17.9597 33.3789 17.6019 33.021L 17.0365 32.4556L 21.4396 28.0524L 31.1443 37.7571C 31.5998 38.2127 32.2014 38.4578 32.8254 38.4578C 33.0144 38.4578 33.2057 38.4352 33.3955 38.3892C 34.2113 38.1915 34.8513 37.596 35.1072 36.7964L 45.8853 3.11679C 46.159 2.26148 45.9346 1.33555 45.2996 0.700443ZM 5.84671 43.4802C 4.92968 44.3975 3.4371 44.3975 2.51989 43.4802C 1.60268 42.563 1.60268 41.0705 2.51989 40.1534L 12.3311 30.3423L 15.6579 33.6691L 5.84671 43.4802ZM 15.7403 31.1595L 14.8405 30.2597L 24.7672 20.3331C 25.0151 20.0851 25.4188 20.0851 25.6669 20.3331C 25.9151 20.5812 25.9151 20.9849 25.6669 21.2329L 15.7403 31.1595ZM 44.1398 2.55823L 33.3614 36.2378C 33.2756 36.5057 33.0545 36.5861 32.9635 36.6082C 32.8721 36.6304 32.6391 36.66 32.4402 36.4612L 22.7355 26.7565L 26.963 22.529C 27.9257 21.5662 27.9257 19.9998 26.963 19.0371C 26.0003 18.0745 24.4339 18.0743 23.4712 19.0371L 19.2437 23.2646L 9.53901 13.56C 9.3401 13.3611 9.36993 13.1277 9.39203 13.0366C 9.41413 12.9456 9.49436 12.7245 9.76237 12.6387L 43.4418 1.86033C 43.7325 1.76698 43.9317 1.92457 44.0036 1.99653C 44.0755 2.06841 44.2328 2.26732 44.1398 2.55823Z"/>
<path id="path1_fill" d="M 2.30915 0.636792C 2.15444 0.154959 1.63865 -0.11053 1.15663 0.0440019L 0.636798 0.210663C 0.154877 0.365284 -0.110521 0.881167 0.0440103 1.36309C 0.168713 1.75202 0.528807 1.9999 0.916482 1.9999C 1.00911 1.9999 1.10354 1.98571 1.19652 1.95588L 1.71636 1.78922C 2.19828 1.63469 2.46368 1.11871 2.30915 0.636792Z"/>
<path id="path2_fill" d="M 16.4508 0.636915C 16.2963 0.154992 15.7805 -0.110586 15.2984 0.0440352L 0.636887 4.74467C 0.154876 4.89929 -0.110522 5.41508 0.0440087 5.897C 0.168622 6.28603 0.528806 6.53391 0.916482 6.53391C 1.00911 6.53391 1.10345 6.51971 1.19643 6.48988L 15.8579 1.78925C 16.3399 1.63463 16.6053 1.11884 16.4508 0.636915Z"/>
</defs>
</svg>
