<svg width="20" height="13" viewBox="0 0 20 13" version="1.1" xmlns="http://www.w3.org/2000/svg" xmlns:xlink="http://www.w3.org/1999/xlink">
<title>Vector</title>
<desc>Created using Figma</desc>
<g id="Canvas" transform="translate(-457 795)">
<g id="Vector">
<use xlink:href="#path0_fill" transform="matrix(1.22465e-16 -1 1 3.06162e-17 457 -782)" fill="#FFFFFF"/>
</g>
</g>
<defs>
<path id="path0_fill" d="M 12.811 13.4728C 13.063 13.1907 13.063 12.7466 12.811 12.4645C 12.5502 12.192 12.1303 12.192 11.8789 12.4645L 7.15254 17.577L 7.15254 0.70585C 7.15254 0.312582 6.86357 0 6.5 0C 6.13643 0 5.83806 0.312582 5.83806 0.70585L 5.83806 17.577L 1.12109 12.4645C 0.860313 12.192 0.449759 12.192 0.188978 12.4645C -0.0629928 12.7466 -0.0629928 13.1907 0.188978 13.4728L 6.03424 19.7956C 6.28621 20.0681 6.70557 20.0681 6.96635 19.7956L 12.811 13.4728Z"/>
</defs>
</svg>
