<svg width="16" height="11" viewBox="0 0 16 11" version="1.1" xmlns="http://www.w3.org/2000/svg" xmlns:xlink="http://www.w3.org/1999/xlink">
<title>Vector</title>
<desc>Created using Figma</desc>
<g id="Canvas" transform="translate(1366 422)">
<g id="Vector">
<use xlink:href="#path0_fill" transform="matrix(-1.83697e-16 -1 1 -1.83697e-16 -1366 -411)" fill="#FFFFFF"/>
</g>
</g>
<defs>
<path id="path0_fill" d="M 10.8401 10.7782C 11.0533 10.5526 11.0533 10.1973 10.8401 9.97162C 10.6194 9.75357 10.2641 9.75357 10.0514 9.97162L 6.05215 14.0616L 6.05215 0.56468C 6.05215 0.250065 5.80763 0 5.5 0C 5.19237 0 4.9399 0.250065 4.9399 0.56468L 4.9399 14.0616L 0.948619 9.97162C 0.727958 9.75357 0.380566 9.75357 0.159905 9.97162C -0.0533016 10.1973 -0.0533016 10.5526 0.159905 10.7782L 5.10589 15.8365C 5.3191 16.0545 5.67394 16.0545 5.89461 15.8365L 10.8401 10.7782Z"/>
</defs>
</svg>
