<svg width="26" height="25" viewBox="0 0 26 25" version="1.1" xmlns="http://www.w3.org/2000/svg" xmlns:xlink="http://www.w3.org/1999/xlink">
<title>icon_phonecall</title>
<desc>Created using Figma</desc>
<g id="Canvas" transform="translate(-4302 1026)">
<g id="icon_phonecall">
<g id="Group">
<g id="Group">
<g id="Vector">
<use xlink:href="#path0_fill" transform="translate(4302 -1024.55)"/>
</g>
<g id="Vector">
<use xlink:href="#path1_fill" transform="translate(4315.44 -1021.47)"/>
</g>
<g id="Vector">
<use xlink:href="#path2_fill" transform="translate(4315.65 -1026)"/>
</g>
</g>
</g>
</g>
</g>
<defs>
<path id="path0_fill" d="M 20.5596 14.0405C 20.0265 13.5076 19.3836 13.2227 18.7021 13.2227C 18.0261 13.2227 17.3777 13.5023 16.8226 14.0353L 15.086 15.6973C 14.9431 15.6235 14.8002 15.5549 14.6629 15.4863C 14.465 15.3913 14.2782 15.3016 14.1188 15.2066C 12.4921 14.2147 11.0138 12.9219 9.59592 11.2493C 8.90897 10.4156 8.44734 9.71388 8.11211 9.00156C 8.56275 8.60583 8.98042 8.19427 9.38709 7.79854C 9.54097 7.6508 9.69484 7.49778 9.84872 7.35005C 11.0028 6.242 11.0028 4.80681 9.84872 3.69877L 8.34842 2.25831C 8.17806 2.09474 8.0022 1.92589 7.83733 1.75705C 7.5076 1.42991 7.16138 1.09222 6.80416 0.775633C 6.27109 0.269097 5.63361 7.24606e-09 4.96314 7.24606e-09C 4.29268 7.24606e-09 3.6442 0.269097 3.09465 0.775633C 3.08915 0.780909 3.08915 0.780909 3.08365 0.786186L 1.21516 2.596C 0.51172 3.27138 0.110543 4.0945 0.0226135 5.04953C -0.109281 6.59024 0.36334 8.02543 0.726048 8.96463C 1.61633 11.2704 2.94626 13.4074 4.93017 15.6973C 7.33724 18.4569 10.2334 20.6361 13.5418 22.1715C 14.8057 22.7466 16.4929 23.4273 18.3779 23.5434C 18.4933 23.5486 18.6142 23.5539 18.7241 23.5539C 19.9936 23.5539 21.0597 23.116 21.895 22.2454C 21.9005 22.2348 21.9115 22.2295 21.917 22.219C 22.2028 21.8866 22.5325 21.5858 22.8787 21.264C 23.1151 21.0476 23.3569 20.8207 23.5932 20.5833C 24.1372 20.0398 24.423 19.4067 24.423 18.7577C 24.423 18.1034 24.1317 17.4755 23.5767 16.9478L 20.5596 14.0405ZM 22.527 19.5966C 22.5215 19.5966 22.5215 19.6019 22.527 19.5966C 22.3127 19.8182 22.0929 20.0187 21.8566 20.2403C 21.4994 20.5675 21.1367 20.9104 20.7959 21.2956C 20.2409 21.8655 19.5869 22.1346 18.7296 22.1346C 18.6472 22.1346 18.5592 22.1346 18.4768 22.1293C 16.8446 22.029 15.3278 21.417 14.1902 20.8946C 11.0797 19.4489 8.34842 17.3963 6.07875 14.7951C 4.20475 12.6265 2.95176 10.6214 2.12193 8.46865C 1.61084 7.15482 1.42399 6.13119 1.50642 5.16561C 1.56138 4.54827 1.80868 4.03646 2.26481 3.59852L 4.13881 1.79926C 4.40809 1.55654 4.69386 1.42463 4.97414 1.42463C 5.32036 1.42463 5.60063 1.62514 5.77649 1.79398C 5.78199 1.79926 5.78748 1.80453 5.79298 1.80981C 6.12821 2.11057 6.44695 2.42187 6.78218 2.75429C 6.95255 2.92313 7.1284 3.09198 7.30426 3.2661L 8.80456 4.70656C 9.38709 5.26586 9.38709 5.78295 8.80456 6.34225C 8.64519 6.49527 8.49131 6.64828 8.33194 6.79602C 7.87031 7.24979 7.43066 7.67191 6.95255 8.08347C 6.94155 8.09402 6.93056 8.0993 6.92507 8.10985C 6.45245 8.56362 6.54038 9.00684 6.6393 9.3076C 6.64479 9.32342 6.65029 9.33925 6.65578 9.35508C 7.04597 10.2626 7.59553 11.1174 8.43086 12.1358L 8.43635 12.141C 9.95314 13.935 11.5524 15.3333 13.3164 16.4044C 13.5418 16.5416 13.7726 16.6524 13.9924 16.7579C 14.1902 16.8529 14.3771 16.9426 14.5365 17.0375C 14.5584 17.0481 14.5804 17.0639 14.6024 17.0745C 14.7892 17.1642 14.9651 17.2064 15.1465 17.2064C 15.6026 17.2064 15.8884 16.932 15.9818 16.8423L 17.8613 15.0378C 18.0481 14.8584 18.3449 14.6421 18.6911 14.6421C 19.0318 14.6421 19.3121 14.8478 19.4825 15.0272C 19.488 15.0325 19.488 15.0325 19.4935 15.0378L 22.5215 17.9451C 23.0876 18.4833 23.0876 19.0373 22.527 19.5966Z"/>
<path id="path1_fill" d="M 0.610682 1.41306C 2.05053 1.64522 3.35847 2.2995 4.40264 3.30202C 5.4468 4.30454 6.12275 5.56032 6.37005 6.94274C 6.43051 7.29099 6.74375 7.5337 7.10097 7.5337C 7.14493 7.5337 7.1834 7.52843 7.22737 7.52315C 7.63404 7.45983 7.90332 7.09048 7.83738 6.70003C 7.54061 5.02741 6.71628 3.50252 5.45779 2.29422C 4.1993 1.08593 2.61108 0.294463 0.868975 0.00953662C 0.462302 -0.0537803 0.0831061 0.204764 0.0116635 0.589942C -0.0597791 0.97512 0.204009 1.34975 0.610682 1.41306Z"/>
<path id="path2_fill" d="M 12.3365 11.028C 11.8474 8.27372 10.4955 5.76743 8.41817 3.77294C 6.34084 1.77846 3.73044 0.48046 0.861742 0.0108596C 0.460565 -0.0577337 0.0813691 0.206087 0.00992652 0.591265C -0.0560205 0.98172 0.213264 1.34579 0.619937 1.41439C 3.18088 1.83122 5.5165 2.99731 7.37401 4.77546C 9.23152 6.55889 10.4405 8.80137 10.8747 11.2602C 10.9352 11.6084 11.2484 11.8511 11.6056 11.8511C 11.6496 11.8511 11.688 11.8459 11.732 11.8406C 12.1332 11.7825 12.408 11.4132 12.3365 11.028Z"/>
</defs>
</svg>
