<svg width="52" height="42" viewBox="0 0 52 42" version="1.1" xmlns="http://www.w3.org/2000/svg" xmlns:xlink="http://www.w3.org/1999/xlink">
<title>icon_calendar</title>
<desc>Created using Figma</desc>
<g id="Canvas" transform="translate(136 273)">
<g id="icon_calendar">
<g id="x37 7 Essential Icons 6">
<g id="Calendar">
<use xlink:href="#path0_fill" transform="translate(-136 -273)" fill="#636886"/>
</g>
</g>
<g id="5">
<use xlink:href="#path1_fill" transform="translate(-134 -255)" fill="#636886"/>
</g>
</g>
</g>
<defs>
<path id="path0_fill" d="M 46.8 3.81818L 41.6 3.81818L 41.6 1.27273C 41.6 0.572727 41.015 0 40.3 0C 39.585 0 39 0.572727 39 1.27273L 39 3.81818L 13 3.81818L 13 1.27273C 13 0.572727 12.415 0 11.7 0C 10.985 0 10.4 0.572727 10.4 1.27273L 10.4 3.81818L 5.2 3.81818C 2.34 3.81818 0 6.10909 0 8.90909L 0 36.9091C 0 39.7091 2.34 42 5.2 42L 46.8 42C 49.66 42 52 39.7091 52 36.9091L 52 8.90909C 52 6.10909 49.66 3.81818 46.8 3.81818ZM 49.4 36.9091C 49.4 38.3091 48.23 39.4545 46.8 39.4545L 5.2 39.4545C 3.77 39.4545 2.6 38.3091 2.6 36.9091L 2.6 17.8182L 49.4 17.8182L 49.4 36.9091ZM 49.4 15.2727L 2.6 15.2727L 2.6 8.90909C 2.6 7.50909 3.77 6.36364 5.2 6.36364L 10.4 6.36364L 10.4 10.1818C 10.4 10.8818 10.985 11.4545 11.7 11.4545C 12.415 11.4545 13 10.8818 13 10.1818L 13 6.36364L 39 6.36364L 39 10.1818C 39 10.8818 39.585 11.4545 40.3 11.4545C 41.015 11.4545 41.6 10.8818 41.6 10.1818L 41.6 6.36364L 46.8 6.36364C 48.23 6.36364 49.4 7.50909 49.4 8.90909L 49.4 15.2727Z"/>
<path id="path1_fill" d="M 24.0797 17.228C 26.9107 17.228 28.9057 15.575 28.9057 12.934C 28.9057 10.35 26.9867 8.849 24.8587 8.849C 23.6427 8.849 22.5977 9.343 21.9897 9.951L 21.9897 6.284L 28.0697 6.284L 28.0697 4.327L 19.7667 4.327L 19.7667 11.414L 21.3437 11.87C 22.1417 11.11 23.0347 10.768 24.1177 10.768C 25.6757 10.768 26.6637 11.661 26.6637 13.029C 26.6637 14.264 25.6567 15.252 24.0607 15.252C 22.6357 15.252 21.4957 14.72 20.6407 13.751L 19.3677 15.271C 20.3937 16.487 21.8947 17.228 24.0797 17.228Z"/>
</defs>
</svg>
