<svg width="18" height="32" viewBox="0 0 18 32" version="1.1" xmlns="http://www.w3.org/2000/svg" xmlns:xlink="http://www.w3.org/1999/xlink">
<title>icon_lightning</title>
<desc>Created using Figma</desc>
<g id="Canvas" transform="translate(253 656)">
<g id="icon_lightning">
<use xlink:href="#path0_fill" transform="translate(-253 -656)" fill="#F2C94C"/>
</g>
</g>
<defs>
<path id="path0_fill" d="M 17.9504 10.975C 17.8636 10.7872 17.6767 10.6667 17.4708 10.6667L 11.1973 10.6667L 17.3887 0.818689C 17.4919 0.654439 17.4983 0.446438 17.4052 0.276313C 17.312 0.105625 17.134 0 16.9413 0L 8.47079 0C 8.27015 0 8.08694 0.114125 7.99699 0.294938L 0.0558244 16.295C -0.0262549 16.4598 -0.0172591 16.656 0.0790896 16.8133C 0.175997 16.9707 0.345925 17.0667 0.529626 17.0667L 5.97354 17.0667L 0.041493 31.2597C -0.0596328 31.5024 0.0303879 31.784 0.253237 31.9216C 0.338976 31.9744 0.43427 32 0.529068 32C 0.681005 32 0.830832 31.9344 0.934626 31.8107L 17.8758 11.544C 18.0086 11.3851 18.0372 11.1632 17.9504 10.975Z"/>
</defs>
</svg>
