<svg width="50" height="48" viewBox="0 0 50 48" version="1.1" xmlns="http://www.w3.org/2000/svg" xmlns:xlink="http://www.w3.org/1999/xlink">
<title>map-location</title>
<desc>Created using Figma</desc>
<g id="Canvas" transform="translate(-656 -2324)">
<g id="map-location">
<g id="Group">
<g id="Vector">
<use xlink:href="#path0_fill" transform="translate(656 2343.93)" fill="#FFFFFF"/>
</g>
<g id="Vector">
<use xlink:href="#path1_fill" transform="translate(670.349 2324)" fill="#FFFFFF"/>
</g>
<g id="Vector">
<use xlink:href="#path2_fill" transform="translate(674.548 2327.83)" fill="#FFFFFF"/>
</g>
<g id="Vector">
<use xlink:href="#path3_fill" transform="translate(683.843 2356.43)" fill="#FFFFFF"/>
</g>
<g id="Vector">
<use xlink:href="#path4_fill" transform="translate(689.261 2356.1)" fill="#FFFFFF"/>
</g>
<g id="Vector">
<use xlink:href="#path5_fill" transform="translate(674.537 2361.1)" fill="#FFFFFF"/>
</g>
<g id="Vector">
<use xlink:href="#path6_fill" transform="translate(694.694 2355.07)" fill="#FFFFFF"/>
</g>
<g id="Vector">
<use xlink:href="#path7_fill" transform="translate(662.086 2361.25)" fill="#FFFFFF"/>
</g>
<g id="Vector">
<use xlink:href="#path8_fill" transform="translate(693.792 2348.23)" fill="#FFFFFF"/>
</g>
<g id="Vector">
<use xlink:href="#path9_fill" transform="translate(698.347 2350.34)" fill="#FFFFFF"/>
</g>
<g id="Vector">
<use xlink:href="#path10_fill" transform="translate(669.693 2363.9)" fill="#FFFFFF"/>
</g>
<g id="Vector">
<use xlink:href="#path11_fill" transform="translate(664.361 2358.02)" fill="#FFFFFF"/>
</g>
<g id="Vector">
<use xlink:href="#path12_fill" transform="translate(664.401 2365.53)" fill="#FFFFFF"/>
</g>
</g>
</g>
</g>
<defs>
<path id="path0_fill" d="M 46.9746 4.42125e-07L 37.0695 4.42125e-07C 36.5669 4.42125e-07 36.1606 0.404747 36.1606 0.905473C 36.1606 1.4062 36.5669 1.81095 37.0695 1.81095L 45.3414 1.81095L 47.9761 26.2587L 2.06118 26.2587L 5.15386 1.81095L 13.4404 1.81095C 13.943 1.81095 14.3492 1.4062 14.3492 0.905473C 14.3492 0.404747 13.943 4.42125e-07 13.4404 4.42125e-07L 3.55072 4.42125e-07L 0 28.0696L 50 28.0696L 46.9746 4.42125e-07Z"/>
<path id="path1_fill" d="M 9.87395 34.3772C 9.74035 34.4559 9.59767 34.5257 9.46953 34.6081C 9.26959 34.7366 9.07419 34.8716 8.88244 35.011C 8.47801 35.3071 8.39077 35.8739 8.68704 36.2769C 8.86517 36.5186 9.14145 36.6463 9.42136 36.6463C 9.60767 36.6463 9.79579 36.5892 9.95847 36.4715C 10.1202 36.3529 10.2847 36.2388 10.4565 36.1284C 10.7482 35.94 11.0581 35.7634 11.378 35.6023C 11.8034 35.3877 11.976 34.886 11.7979 34.4532C 11.8052 34.446 11.8143 34.4406 11.8206 34.4333C 13.4647 32.6984 19.0048 26.1971 21.2986 15.3659C 21.7639 13.1692 21.8684 11.0613 21.6094 9.1009C 20.8278 3.14742 17.1153 -2.33152e-08 10.8736 -2.33152e-08C 4.63375 -2.33152e-08 0.92126 3.14742 0.137866 9.1009C -0.120236 11.0622 -0.0157227 13.1701 0.449588 15.3659C 2.7207 26.0921 8.17356 32.568 9.87395 34.3772ZM 1.94004 9.33723C 2.60619 4.27383 5.52893 1.81185 10.8745 1.81185C 16.2211 1.81185 19.1429 4.27383 19.8081 9.33723C 20.0399 11.0938 19.9427 12.9981 19.521 14.9937C 17.4589 24.7303 12.5422 30.9083 10.8745 32.7826C 9.20506 30.9065 4.28931 24.7257 2.22813 14.9937C 1.80553 12.9981 1.7092 11.0948 1.94004 9.33723Z"/>
<path id="path2_fill" d="M 6.67612 13.3032C 10.3577 13.3032 13.3522 10.3197 13.3522 6.6516C 13.3522 2.98353 10.3577 -1.79613e-07 6.67612 -1.79613e-07C 2.99453 -1.79613e-07 3.60551e-07 2.98353 3.60551e-07 6.6516C 3.60551e-07 10.3197 2.99453 13.3032 6.67612 13.3032ZM 6.67612 1.81185C 9.35438 1.81185 11.5346 3.98317 11.5346 6.65251C 11.5346 9.32184 9.35529 11.4932 6.67612 11.4932C 3.99695 11.4932 1.81762 9.32184 1.81762 6.65251C 1.81762 3.98317 3.99785 1.81185 6.67612 1.81185Z"/>
<path id="path3_fill" d="M 0.719011 0.317232C 0.228253 0.420456 -0.0843767 0.902167 0.0201364 1.39203C 0.111017 1.8176 0.488173 2.10826 0.908043 2.10826C 0.970751 2.10826 1.03528 2.10192 1.09889 2.08834C 1.63146 1.97606 2.20855 1.88098 2.81291 1.80492C 3.31094 1.74426 3.66537 1.29152 3.60267 0.795325C 3.54087 0.29822 3.09101 -0.0603496 2.58934 0.00846633C 1.93227 0.0890534 1.30247 0.193182 0.719011 0.317232Z"/>
<path id="path4_fill" d="M 0.00087337 1.01999C 0.0208672 1.50623 0.42438 1.88653 0.907867 1.88653C 0.921499 1.88653 0.934221 1.88653 0.947853 1.88563L 2.76638 1.81047C 3.26714 1.78783 3.65611 1.36407 3.63248 0.865156C 3.60976 0.36443 3.14263 -0.0258274 2.68368 0.00133676L 0.869697 0.0764911C 0.368034 0.097317 -0.0209381 0.519267 0.00087337 1.01999Z"/>
<path id="path5_fill" d="M 1.84988 0.181803C 1.38275 0.533126 0.900177 0.87087 0.413964 1.18416C -0.00681553 1.45671 -0.126779 2.0172 0.146773 2.43734C 0.320356 2.70445 0.612992 2.84933 0.910173 2.84933C 1.08012 2.84933 1.25098 2.80224 1.40457 2.70355C 1.92531 2.36671 2.44425 2.00452 2.945 1.62784C 3.34488 1.32632 3.42485 0.758592 3.12313 0.359278C 2.82049 -0.0364133 2.25249 -0.119719 1.84988 0.181803Z"/>
<path id="path6_fill" d="M 1.94845 0.238115C 1.64128 0.452712 1.24231 0.608455 0.725196 0.714395C 0.23353 0.814902 -0.0827367 1.2948 0.01905 1.78466C 0.108113 2.21295 0.486178 2.50723 0.908775 2.50723C 0.969665 2.50723 1.03146 2.50089 1.09326 2.48822C 1.85848 2.33066 2.48011 2.07894 2.99813 1.71585L 3.11991 1.62711C 3.51979 1.32468 3.59885 0.756951 3.29622 0.358543C 2.99268 -0.0398651 2.42376 -0.117736 2.02297 0.182881L 1.94845 0.238115Z"/>
<path id="path7_fill" d="M 1.96576 1.14338C 2.09753 0.660761 1.81035 0.163655 1.32595 0.0332667C 0.845194 -0.101649 0.342621 0.186294 0.211753 0.670721C 0.0972425 1.09086 0.0290819 1.52005 0.00727041 1.94291C 0.00272636 2.04704 2.42678e-08 2.15207 2.42678e-08 2.26254C 0.000908834 2.44001 0.00908795 2.61748 0.0263553 2.79405C 0.0745223 3.26037 0.468946 3.60717 0.929712 3.60717C 0.959703 3.60717 0.990603 3.60536 1.02332 3.60264C 1.52226 3.55103 1.88578 3.10735 1.8358 2.60934C 1.82307 2.49072 1.81853 2.37029 1.81762 2.2562C 1.81762 2.18105 1.82035 2.10589 1.82398 2.03165C 1.83852 1.73827 1.88578 1.43856 1.96576 1.14338Z"/>
<path id="path8_fill" d="M 2.83031 0.0450066C 2.10871 -0.0509734 1.37257 0.00788205 0.661883 0.208897C 0.178396 0.343812 -0.102425 0.84454 0.0348054 1.32535C 0.147498 1.72466 0.511929 1.98543 0.908171 1.98543C 0.990872 1.98543 1.07357 1.97457 1.15537 1.95103C 1.62795 1.81883 2.11416 1.77718 2.58674 1.84056C 3.09749 1.90394 3.54281 1.55896 3.60915 1.06457C 3.67641 0.567465 3.32742 0.112012 2.83031 0.0450066Z"/>
<path id="path9_fill" d="M 0.0834073 2.41523C -0.0647287 2.89242 0.204279 3.40039 0.683222 3.54707C 0.773194 3.57514 0.862259 3.58782 0.951322 3.58782C 1.34029 3.58782 1.69927 3.33882 1.81923 2.94946C 1.90921 2.66152 1.96464 2.36905 1.98555 2.07749C 1.99009 2.00234 1.99282 1.92628 1.99282 1.85112C 1.99282 1.42736 1.91466 1.0027 1.76107 0.590707C 1.58658 0.120767 1.06038 -0.116467 0.59325 0.0564782C 0.121578 0.230329 -0.117439 0.751881 0.0570524 1.22001C 0.13521 1.43008 0.175199 1.64286 0.175199 1.85022L 0.17247 1.95616C 0.161565 2.10647 0.132483 2.25678 0.0834073 2.41523Z"/>
<path id="path10_fill" d="M 2.1934 0.0864201C 1.66084 0.335425 1.11828 0.566319 0.581171 0.773673C 0.113134 0.952956 -0.119521 1.47722 0.0613324 1.94445C 0.20038 2.30301 0.543911 2.52395 0.909253 2.52395C 1.01831 2.52395 1.12918 2.50494 1.23642 2.46329C 1.81352 2.24144 2.39516 1.99335 2.96589 1.72714C 3.42029 1.51526 3.61569 0.975593 3.40212 0.522856C 3.19037 0.0692147 2.65053 -0.127271 2.1934 0.0864201Z"/>
<path id="path11_fill" d="M 0.910239 2.19317C 1.05656 2.19317 1.2056 2.15786 1.34465 2.08271C 1.60639 1.94055 1.88539 1.85181 2.17258 1.82102C 2.29527 1.80654 2.42068 1.80653 2.54155 1.82283C 3.05321 1.88893 3.4958 1.53942 3.56124 1.04413C 3.62667 0.547927 3.27678 0.0933822 2.77966 0.0281882C 2.50884 -0.00712525 2.23347 -0.00893567 1.96991 0.0209449C 1.44825 0.0779897 0.944774 0.237353 0.47401 0.492696C 0.0332373 0.732646 -0.12944 1.28136 0.111395 1.72052C 0.276798 2.02294 0.588521 2.19317 0.910239 2.19317Z"/>
<path id="path12_fill" d="M 0.680403 1.78271C 0.876706 1.83342 1.07664 1.87145 1.27476 1.89499C 1.50742 1.92306 1.74008 1.93755 1.97364 1.93755C 2.2581 1.93755 2.54346 1.91763 2.82792 1.88141C 3.32595 1.81893 3.67948 1.3662 3.61586 0.869998C 3.55224 0.3738 3.10056 0.0242866 2.60072 0.0849533C 2.23356 0.132038 1.86276 0.142903 1.49561 0.0985348C 1.37564 0.0831418 1.25568 0.0605077 1.13753 0.0306271C 0.651321 -0.0988554 0.156019 0.194517 0.0287857 0.678945C -0.0957212 1.16337 0.195098 1.65776 0.680403 1.78271Z"/>
</defs>
</svg>
