<svg width="28" height="17" viewBox="0 0 28 17" version="1.1" xmlns="http://www.w3.org/2000/svg" xmlns:xlink="http://www.w3.org/1999/xlink">
<title>vk</title>
<desc>Created using Figma</desc>
<g id="Canvas" transform="translate(-669 -3679)">
<g id="vk">
<g id="Group">
<g id="Vector">
<use xlink:href="#path0_fill" transform="translate(669 3679.67)" fill="#FFFFFF"/>
</g>
</g>
</g>
</g>
<defs>
<path id="path0_fill" d="M 26.3242 12.4855C 25.5065 11.5128 24.5443 10.6827 23.6339 9.80121C 22.8125 9.00665 22.7607 8.54572 23.421 7.62865C 24.1416 6.62776 24.9165 5.66525 25.6437 4.66887C 26.3224 3.73769 27.0163 2.80906 27.3735 1.69413C 27.6 0.984807 27.3996 0.671498 26.6662 0.547303C 26.5399 0.525569 26.4092 0.52444 26.2806 0.52444L 21.9294 0.519359C 21.3935 0.511456 21.0973 0.743192 20.9077 1.21428C 20.6519 1.85106 20.3881 2.48728 20.0833 3.10176C 19.3917 4.495 18.6193 5.84166 17.5364 6.982C 17.2977 7.23349 17.0336 7.55132 16.6345 7.42035C 16.1354 7.2397 15.9882 6.42397 15.9965 6.1482L 15.9922 1.16715C 15.8955 0.455569 15.7364 0.138308 15.024 6.89112e-08L 10.5041 0.000846924C 9.90075 0.000846924 9.59822 0.232018 9.27606 0.606295C 9.09022 0.822507 9.03416 0.96279 9.41608 1.03448C 10.1663 1.17561 10.5889 1.65715 10.701 2.40317C 10.8809 3.59515 10.8684 4.79194 10.7648 5.98872C 10.7343 6.33816 10.6737 6.68675 10.534 7.01304C 10.3154 7.52591 9.9625 7.63035 9.4989 7.31478C 9.07912 7.02913 8.78428 6.62607 8.4957 6.2213C 7.41168 4.70218 6.5468 3.06394 5.84157 1.34243C 5.6378 0.845088 5.28632 0.543634 4.75499 0.535448C 3.44955 0.514843 2.14383 0.511456 0.838389 0.536577C 0.0529072 0.551255 -0.181315 0.929484 0.13857 1.6357C 1.56041 4.77246 3.14304 7.822 5.20891 10.6C 6.2696 12.0257 7.48738 13.2843 9.06062 14.1763C 10.8436 15.1873 12.7629 15.4916 14.7844 15.3979C 15.731 15.3538 16.0153 15.1097 16.0591 14.174C 16.0887 13.5338 16.1618 12.8973 16.4803 12.3221C 16.7928 11.7576 17.2661 11.65 17.8116 12.0012C 18.0846 12.177 18.3145 12.4008 18.5317 12.6368C 19.0644 13.2149 19.5781 13.8104 20.1311 14.369C 20.8246 15.069 21.6463 15.4826 22.6793 15.3982L 26.6785 15.399C 27.3228 15.3572 27.6569 14.5737 27.2869 13.8604C 27.0271 13.3608 26.6862 12.916 26.3242 12.4855Z"/>
</defs>
</svg>
