<svg width="51" height="41" viewBox="0 0 51 41" version="1.1" xmlns="http://www.w3.org/2000/svg" xmlns:xlink="http://www.w3.org/1999/xlink">
<title>icon_discount</title>
<desc>Created using Figma</desc>
<g id="Canvas" transform="translate(370 270)">
<g id="icon_discount">
<g id="Vector">
<use xlink:href="#path0_fill" transform="translate(-370 -249.822)" fill="#636886"/>
</g>
<g id="30%">
<use xlink:href="#path1_fill" transform="translate(-364 -275)" fill="#636886"/>
</g>
</g>
</g>
<defs>
<path id="path0_fill" d="M 49.8876 9.43824C 49.8356 9.3238 49.7731 9.23015 49.7001 9.15728L 49.4605 8.91797C 47.3875 6.83681 46.2417 5.69209 43.4811 6.48298L 34.3765 9.0324C 34.3765 8.96997 34.3869 8.90754 34.3869 8.83466C 34.3869 7.02402 33.2306 5.19261 31.0222 5.19261C 29.4389 5.19261 28.2826 5.19261 27.3033 5.20304C 25.8553 5.20304 24.8032 5.21348 23.324 5.20304L 23.1052 4.99496C 21.9697 3.90233 20.0738 2.08126 15.5736 2.08126L 10.4172 2.08126L 10.4172 1.04063C 10.4172 0.468269 9.94838 1.2385e-06 9.37541 1.2385e-06L 1.04174 1.2385e-06C 0.46877 1.2385e-06 5.82102e-10 0.468269 5.82102e-10 1.04063L 5.82102e-10 16.6496C 5.82102e-10 17.2219 0.46877 17.6902 1.04174 17.6902L 9.37541 17.6902C 9.94838 17.6902 10.4172 17.2219 10.4172 16.6496L 10.4172 16.1709C 12.3339 16.816 14.0215 17.4091 15.5111 17.9295C 20.8239 19.7921 23.824 20.8223 26.6158 20.8223C 30.116 20.8223 33.2828 19.199 40.2622 15.5465C 42.6998 14.2666 45.7416 12.6849 49.4293 10.8326C 49.9397 10.5724 50.1481 9.94806 49.8876 9.43824ZM 8.33376 15.5985L 2.08349 15.5985L 2.08349 2.07082L 8.33376 2.07082L 8.33376 15.5985ZM 39.2726 13.6942C 27.4283 19.8961 27.4283 19.8961 16.1883 15.9627C 14.532 15.38 12.6152 14.714 10.4172 13.9752L 10.4172 4.15198L 15.5529 4.15198C 19.1989 4.15198 20.6677 5.55678 21.6261 6.48288C 21.8553 6.7014 22.0532 6.89915 22.2512 7.0448C 22.4282 7.19045 22.6574 7.26333 22.8866 7.26333C 24.5742 7.27377 25.6888 7.27377 27.2618 7.27377C 28.2411 7.27377 29.4286 7.26333 31.0224 7.26333C 32.262 7.26333 32.3037 8.66813 32.3037 8.82422C 32.3142 9.23005 32.1892 9.63589 31.9495 9.96884C 31.7308 10.2498 31.387 10.4059 31.0224 10.3851L 19.8238 10.3851C 19.303 10.3851 18.8342 10.7597 18.7613 11.2697C 18.6675 11.9148 19.1675 12.4664 19.7926 12.4664L 31.0118 12.4664C 31.9389 12.4872 32.8244 12.1022 33.4389 11.3945C 33.491 11.3945 33.5535 11.3945 33.6057 11.3841L 44.0228 8.47039C 45.3458 8.09577 45.8146 8.27264 47.1792 9.60467C 44.0436 11.1864 41.4289 12.56 39.2726 13.6942Z"/>
<path id="path1_fill" d="M 8.27024 20.264C 11.6582 20.264 13.7922 18.482 13.7922 15.996C 13.7922 13.73 11.8122 12.564 10.3822 12.432C 11.9002 12.168 13.5722 11.024 13.5722 9.066C 13.5722 6.602 11.4382 5.106 8.27024 5.106C 5.82824 5.106 4.04624 6.096 2.92424 7.416L 4.24424 9.022C 5.30024 7.966 6.53224 7.394 8.02824 7.394C 9.67824 7.394 10.9982 8.098 10.9982 9.462C 10.9982 10.804 9.70024 11.398 7.98424 11.398C 7.41224 11.398 6.55424 11.398 6.29024 11.376L 6.29024 13.686C 6.51024 13.664 7.36824 13.664 7.98424 13.664C 10.0742 13.664 11.2402 14.28 11.2402 15.732C 11.2402 17.096 10.1182 17.976 8.18224 17.976C 6.62024 17.976 5.05824 17.294 4.11224 16.194L 2.72624 17.888C 3.71624 19.208 5.65224 20.264 8.27024 20.264ZM 21.6071 20.264C 25.7211 20.264 27.4811 16.37 27.4811 12.674C 27.4811 8.978 25.7211 5.106 21.6071 5.106C 17.4931 5.106 15.7331 8.978 15.7331 12.674C 15.7331 16.37 17.4931 20.264 21.6071 20.264ZM 21.6071 17.976C 19.2091 17.976 18.3511 15.468 18.3511 12.674C 18.3511 9.88 19.2091 7.394 21.6071 7.394C 24.0051 7.394 24.8631 9.88 24.8631 12.674C 24.8631 15.468 24.0051 17.976 21.6071 17.976ZM 32.6337 12.388C 34.8337 12.388 36.3077 10.826 36.3077 8.78C 36.3077 6.712 34.8337 5.106 32.6337 5.106C 30.4557 5.106 29.0037 6.712 29.0037 8.78C 29.0037 10.826 30.4557 12.388 32.6337 12.388ZM 32.6777 20L 42.0717 5.326L 40.5977 5.326L 31.2257 20L 32.6777 20ZM 40.5317 20.264C 42.7097 20.264 44.1837 18.702 44.1837 16.656C 44.1837 14.588 42.7097 12.982 40.5317 12.982C 38.3537 12.982 36.9017 14.588 36.9017 16.656C 36.9017 18.702 38.3537 20.264 40.5317 20.264ZM 32.6337 10.936C 31.5117 10.936 30.6977 10.034 30.6977 8.78C 30.6977 7.46 31.5117 6.58 32.6337 6.58C 33.7777 6.58 34.5917 7.46 34.5917 8.78C 34.5917 10.034 33.7777 10.936 32.6337 10.936ZM 40.5317 18.812C 39.3877 18.812 38.5957 17.932 38.5957 16.656C 38.5957 15.336 39.3877 14.456 40.5317 14.456C 41.6757 14.456 42.4897 15.336 42.4897 16.656C 42.4897 17.932 41.6757 18.812 40.5317 18.812Z"/>
</defs>
</svg>
