<svg width="12" height="12" viewBox="0 0 12 12" version="1.1" xmlns="http://www.w3.org/2000/svg" xmlns:xlink="http://www.w3.org/1999/xlink">
<title>foreign</title>
<desc>Created using Figma</desc>
<g id="Canvas" transform="translate(129 682)">
<rect x="-129" y="-682" width="12" height="12" fill="#E5E5E5"/>
<clipPath id="clip-0" clip-rule="evenodd">
<path d="M -936 -1054L 664 -1054L 664 2374L -936 2374L -936 -1054Z" fill="#FFFFFF"/>
</clipPath>
<g id="&#208;&#160;&#208;&#181;&#208;&#183;&#209;&#131;&#208;&#187;&#209;&#140;&#209;&#130;&#208;&#176;&#209;&#130;&#209;&#139; &#208;&#191;&#208;&#190;&#208;&#184;&#209;&#129;&#208;&#186;&#208;&#176; (1600px)" clip-path="url(#clip-0)">
<path d="M -936 -1054L 664 -1054L 664 2374L -936 2374L -936 -1054Z" fill="#FFFFFF"/>
<g id="Content">
<path d="M -936 -901L 664 -901L 664 1330L -936 1330L -936 -901Z" fill="#FFFFFF"/>
<g id="Back">
<use xlink:href="#path0_fill" transform="translate(-936 -901)" fill="#F7F7F7"/>
</g>
<g id="District 1">
<g id="Link">
<g id="foreign">
<g id="Group">
<g id="Group">
<g id="Vector">
<use xlink:href="#path1_fill" transform="translate(-124.636 -682)" fill="#2F80ED"/>
</g>
</g>
</g>
<g id="Group">
<g id="Group">
<g id="Vector">
<use xlink:href="#path2_fill" transform="translate(-129 -679.818)" fill="#2F80ED"/>
</g>
</g>
</g>
</g>
</g>
</g>
</g>
</g>
</g>
<defs>
<path id="path0_fill" d="M 0 0L 1600 0L 1600 2231L 0 2231L 0 0Z"/>
<path id="path1_fill" d="M 7.09089 0L 2.72725 0C 2.42601 0 2.18179 0.244224 2.18179 0.545471C 2.18179 0.84672 2.42601 1.09094 2.72725 1.09094L 5.77405 1.09094L 0.159767 6.70536C -0.053256 6.91839 -0.053256 7.26373 0.159767 7.47675C 0.266244 7.58326 0.405838 7.63651 0.545431 7.63651C 0.685025 7.63651 0.824642 7.58328 0.931142 7.47673L 6.54545 1.86233L 6.54545 4.9092C 6.54545 5.21044 6.78967 5.45467 7.09091 5.45467C 7.39216 5.45467 7.63637 5.21044 7.63637 4.9092L 7.63637 0.545471C 7.63635 0.244224 7.39213 0 7.09089 0Z"/>
<path id="path2_fill" d="M 9.27272 3.27278C 8.97147 3.27278 8.72725 3.51701 8.72725 3.81825L 8.72725 8.72745L 1.0909 8.72745L 1.0909 1.09092L 6 1.09092C 6.30124 1.09092 6.54546 0.846696 6.54546 0.545448C 6.54546 0.2442 6.30124 8.01102e-08 6 8.01102e-08L 0.545461 8.01102e-08C 0.244219 8.01102e-08 0 0.244223 0 0.545472L 0 9.27292C 0 9.57415 0.244219 9.81837 0.545461 9.81837L 9.27274 9.81837C 9.57398 9.81837 9.8182 9.57415 9.8182 9.2729L 9.8182 3.81825C 9.81818 3.51701 9.57396 3.27278 9.27272 3.27278Z"/>
</defs>
</svg>
