<svg width="24" height="19" viewBox="0 0 24 19" version="1.1" xmlns="http://www.w3.org/2000/svg" xmlns:xlink="http://www.w3.org/1999/xlink">
<title>icon_burgermenu</title>
<desc>Created using Figma</desc>
<g id="Canvas" transform="translate(-4375 1022)">
<g id="icon_burgermenu">
<use xlink:href="#path0_fill" transform="translate(4375 -1021.64)"/>
</g>
</g>
<defs>
<path id="path0_fill" d="M 1.39143 2.52105L 22.6086 2.52105C 23.3774 2.52105 24 1.95761 24 1.26067C 24 0.56548 23.3774 6.67155e-09 22.6086 6.67155e-09L 1.39143 6.67155e-09C 0.622567 6.67155e-09 0 0.56548 0 1.26067C 0 1.9579 0.622567 2.52105 1.39143 2.52105ZM 22.6086 7.71938L 1.39143 7.71938C 0.622567 7.71938 0 8.28515 0 8.98005C 0 9.67757 0.622567 10.2407 1.39143 10.2407L 22.6086 10.2407C 23.3774 10.2407 24 9.67728 24 8.98005C 24 8.28515 23.3774 7.71938 22.6086 7.71938ZM 22.6086 15.4388L 1.39143 15.4388C 0.622567 15.4388 0 16.0045 0 16.6994C 0 17.397 0.622567 17.9601 1.39143 17.9601L 22.6086 17.9601C 23.3774 17.9601 24 17.3961 24 16.6994C 24 16.0045 23.3774 15.4388 22.6086 15.4388Z"/>
</defs>
</svg>
