<svg width="25" height="18" viewBox="0 0 25 18" version="1.1" xmlns="http://www.w3.org/2000/svg" xmlns:xlink="http://www.w3.org/1999/xlink">
<title>youtube</title>
<desc>Created using Figma</desc>
<g id="Canvas" transform="translate(-806 -3679)">
<g id="youtube">
<g id="Group">
<g id="Vector">
<use xlink:href="#path0_fill" transform="translate(806.24 3679.1)" fill="#FFFFFF"/>
</g>
</g>
</g>
</g>
<defs>
<path id="path0_fill" d="M 24.7459 6.69928C 24.7369 6.20715 24.6975 5.58492 24.6286 4.83314C 24.5594 4.08094 24.4603 3.40871 24.3315 2.8164C 24.1841 2.15111 23.8639 1.5905 23.3712 1.13477C 22.8785 0.678936 22.3051 0.414698 21.6509 0.341671C 19.6058 0.11397 16.5155 -1.22756e-07 12.3798 -1.22756e-07C 8.24411 -1.22756e-07 5.15375 0.11397 3.10885 0.341671C 2.45475 0.41465 1.88355 0.678936 1.3955 1.13477C 0.907247 1.59036 0.589442 2.15097 0.442033 2.8164C 0.304013 3.4089 0.200255 4.08109 0.131197 4.83314C 0.062235 5.58492 0.0230357 6.20691 0.0138892 6.69928C 0.00454906 7.19146 0 7.875 0 8.75007C 0 9.62506 0.00454906 10.3088 0.0139375 10.8009C 0.0230841 11.2933 0.0622834 11.9152 0.131245 12.667C 0.200304 13.4191 0.299367 14.0913 0.428338 14.6837C 0.575747 15.3492 0.895778 15.9097 1.38858 16.3653C 1.88147 16.821 2.45499 17.0853 3.1089 17.1583C 5.1538 17.3862 8.24396 17.5001 12.3799 17.5001C 16.5159 17.5001 19.6059 17.3862 21.6509 17.1583C 22.3051 17.0854 22.8761 16.821 23.3643 16.3653C 23.8526 15.9097 24.1702 15.3489 24.3176 14.6837C 24.4557 14.0913 24.5594 13.4191 24.6286 12.667C 24.6975 11.9153 24.7366 11.293 24.7459 10.8009C 24.7551 10.3088 24.7598 9.62506 24.7598 8.75007C 24.7598 7.875 24.7552 7.19146 24.7459 6.69928ZM 17.2711 9.48839L 10.197 13.8633C 10.0679 13.9544 9.91119 13.9999 9.72705 13.9999C 9.58898 13.9999 9.44622 13.9633 9.29886 13.8905C 8.99494 13.7266 8.84304 13.4713 8.84304 13.125L 8.84304 4.3752C 8.84304 4.02903 8.99499 3.7737 9.29886 3.60969C 9.61212 3.44539 9.91139 3.45459 10.197 3.63703L 17.2711 8.01195C 17.5474 8.16662 17.6855 8.41286 17.6855 8.75012C 17.6855 9.08724 17.5473 9.33357 17.2711 9.48839Z"/>
</defs>
</svg>
