<svg width="47" height="54" viewBox="0 0 47 54" version="1.1" xmlns="http://www.w3.org/2000/svg" xmlns:xlink="http://www.w3.org/1999/xlink">
<title>icon_offer</title>
<desc>Created using Figma</desc>
<g id="Canvas" transform="translate(599 279)">
<g id="icon_offer">
<g id="Vector">
<use xlink:href="#path0_fill" transform="translate(-599 -277.639)" fill="#636886"/>
</g>
<g id="Vector">
<use xlink:href="#path1_fill" transform="matrix(0.94686 0.321647 -0.324311 0.94595 -559.673 -279)" fill="#636886"/>
</g>
<g id="Vector">
<use xlink:href="#path2_fill" transform="translate(-581.677 -231.866)" fill="#636886"/>
</g>
<g id="Vector">
<use xlink:href="#path3_fill" transform="translate(-594.402 -270.773)" fill="#636886"/>
</g>
<g id="Vector">
<use xlink:href="#path4_fill" transform="translate(-594.441 -266.294)" fill="#636886"/>
</g>
<g id="Vector">
<use xlink:href="#path5_fill" transform="translate(-594.441 -261.756)" fill="#636886"/>
</g>
<g id="Vector">
<use xlink:href="#path6_fill" transform="translate(-594.402 -257.041)" fill="#636886"/>
</g>
</g>
</g>
<defs>
<path id="path0_fill" d="M 2.29921 50.3499L 33.596 50.3499L 33.596 33.126L 35.7862 29.4958L 35.8952 51.4944C 35.8952 52.1263 35.3805 52.6386 34.7456 52.6386L 1.14955 52.6386C 0.514666 52.6386 0 52.1263 0 51.4944L 0 1.14427C 0 0.512301 0.514666 0 1.14955 0L 34.7456 0C 35.3806 0 35.8953 0.512301 35.8952 1.14427L 35.7862 14.7479L 33.487 16.3361L 33.596 2.28855L 2.29921 2.28865L 2.29921 50.3499Z"/>
<path id="path1_fill" d="M 10.1233 9.15901L 7.82517 9.15901L 7.82517 8.01419C 7.82517 7.38191 7.31075 6.86936 6.67617 6.86936L 6.6678 6.86936L 6.6678 1.14483C 6.6678 0.512549 6.15338 0 5.5188 0L 2.30637 0C 1.67179 0 1.15737 0.512549 1.15737 1.14483L 1.15737 6.86916L 1.14901 6.86916C 0.51442 6.86916 0 7.38171 0 8.01398L 6.57646e-16 38.7478C 6.57646e-16 39.0989 0.158879 39.4126 0.408605 39.6227L 3.10616 46.1157C 3.29807 46.5108 3.69986 46.7619 4.14036 46.7619C 4.58087 46.7619 4.98286 46.5108 5.17467 46.1157L 7.41657 39.6227C 7.66629 39.4127 7.82517 39.0989 7.82517 38.7478L 7.82517 11.4487L 8.97418 11.4487L 8.97418 19.443C 8.97418 20.0753 9.48859 20.5878 10.1232 20.5878C 10.7578 20.5878 11.2722 20.0753 11.2722 19.443L 11.2722 10.3037C 11.2723 9.67156 10.7579 9.15901 10.1233 9.15901ZM 3.45527 2.28975L 4.36959 2.28975L 4.36959 6.86926L 3.45527 6.86926L 3.45527 2.28975ZM 4.10092 42.903L 3.0925 39.8928L 5.01223 39.8928L 4.10092 42.903ZM 5.52706 37.374L 2.2978 37.374L 2.2978 9.15901L 2.30617 9.15901L 5.51859 9.15901L 5.52695 9.15901L 5.52706 37.374Z"/>
<path id="path2_fill" d="M 12.6456 1.0793e-06L 1.14955 1.0793e-06C 0.514666 1.0793e-06 7.43869e-07 0.5123 7.43869e-07 1.14427C 7.43869e-07 1.77624 0.514666 2.28855 1.14955 2.28855L 12.6455 2.28855C 13.2804 2.28855 13.7951 1.77624 13.7951 1.14427C 13.7951 0.5123 13.2805 1.0793e-06 12.6456 1.0793e-06Z"/>
<path id="path3_fill" d="M 14.9447 -2.94926e-07L 1.14955 -2.94926e-07C 0.514666 -2.94926e-07 -6.61917e-08 0.512302 -6.61917e-08 1.14427C -6.61917e-08 1.77625 0.514666 2.28855 1.14955 2.28855L 14.9447 2.28855C 15.5796 2.28855 16.0943 1.77625 16.0943 1.14427C 16.0944 0.512302 15.5797 -2.94926e-07 14.9447 -2.94926e-07Z"/>
<path id="path4_fill" d="M 25.424 8.70937e-08L 1.01692 8.70937e-08C 0.455283 8.70937e-08 -5.85545e-08 0.50789 -5.85545e-08 1.13442C -5.85545e-08 1.76095 0.455283 2.26884 1.01692 2.26884L 25.4239 2.26884C 25.9855 2.26884 26.4408 1.76095 26.4408 1.13442C 26.4408 0.50789 25.9856 8.70937e-08 25.424 8.70937e-08Z"/>
<path id="path5_fill" d="M 25.424 4.10585e-07L 1.01692 4.10585e-07C 0.455283 4.10585e-07 -5.85545e-08 0.507889 -5.85545e-08 1.13442C -5.85545e-08 1.76095 0.455283 2.26884 1.01692 2.26884L 25.4239 2.26884C 25.9855 2.26884 26.4408 1.76095 26.4408 1.13442C 26.4408 0.507889 25.9856 4.10585e-07 25.424 4.10585e-07Z"/>
<path id="path6_fill" d="M 14.9447 7.40452e-07L 1.14955 7.40452e-07C 0.514666 7.40452e-07 -6.61917e-08 0.512301 -6.61917e-08 1.14427C -6.61917e-08 1.77624 0.514666 2.28855 1.14955 2.28855L 14.9447 2.28855C 15.5796 2.28855 16.0943 1.77624 16.0943 1.14427C 16.0943 0.512301 15.5797 7.40452e-07 14.9447 7.40452e-07Z"/>
</defs>
</svg>
