<svg width="11" height="18" viewBox="0 0 11 18" version="1.1" xmlns="http://www.w3.org/2000/svg" xmlns:xlink="http://www.w3.org/1999/xlink">
<title>ok</title>
<desc>Created using Figma</desc>
<g id="Canvas" transform="translate(-747 -3679)">
<g id="ok">
<g id="Group">
<g id="Group">
<g id="Vector">
<use xlink:href="#path0_fill" transform="translate(747.507 3688.19)" fill="#FFFFFF"/>
</g>
<g id="Vector">
<use xlink:href="#path1_fill" transform="translate(748.315 3679.67)" fill="#FFFFFF"/>
</g>
</g>
</g>
</g>
</g>
<defs>
<path id="path0_fill" d="M 4.28284 3.40027C 2.96012 3.26334 1.7675 2.93999 0.746423 2.14733C 0.619727 2.04871 0.488921 1.95365 0.373304 1.8435C -0.0736174 1.41746 -0.118649 0.929517 0.234992 0.426675C 0.537526 -0.00362168 1.04538 -0.118734 1.57325 0.128341C 1.67547 0.176231 1.77286 0.236004 1.86614 0.300212C 3.76908 1.59802 6.38324 1.63385 8.29333 0.358566C 8.48257 0.214542 8.68486 0.0971241 8.91931 0.0371734C 9.37517 -0.0790033 9.80029 0.0871914 10.0449 0.483079C 10.3244 0.935192 10.3208 1.37649 9.97648 1.7275C 9.44825 2.26564 8.81299 2.65496 8.10713 2.92669C 7.4397 3.18352 6.70865 3.31282 5.98511 3.39867C 6.09429 3.51662 6.14575 3.57462 6.21402 3.64273C 7.19649 4.62252 8.18326 5.59822 9.16252 6.58102C 9.49614 6.9159 9.56584 7.33112 9.38214 7.72062C 9.18128 8.14631 8.73168 8.42637 8.29083 8.3964C 8.01153 8.37724 7.7937 8.23925 7.60017 8.04574C 6.85875 7.30522 6.1034 6.57836 5.377 5.82384C 5.1656 5.60443 5.06392 5.64594 4.87736 5.83643C 4.13148 6.59858 3.37345 7.34903 2.61095 8.09522C 2.26856 8.43027 1.86114 8.49058 1.46407 8.2992C 1.04199 8.09611 0.773406 7.66847 0.794135 7.23871C 0.808431 6.948 0.952461 6.72593 1.15349 6.52675C 2.12579 5.5631 3.0954 4.59697 4.06536 3.63173C 4.12952 3.56753 4.18938 3.49942 4.28284 3.40027Z"/>
<path id="path1_fill" d="M 4.28094 8.57208C 1.92124 8.5641 -0.0136868 6.62244 7.29102e-05 4.27656C 0.0136539 1.90478 1.94984 -0.0065458 4.33276 1.68494e-05C 6.72051 0.00640213 8.63704 1.94522 8.62506 4.34165C 8.61291 6.68275 6.66458 8.58024 4.28094 8.57208ZM 6.42548 4.28224C 6.42137 3.11745 5.48679 2.19017 4.31561 2.1891C 3.1346 2.18786 2.19161 3.132 2.20073 4.30742C 2.20948 5.46777 3.15211 6.38849 4.32651 6.38424C 5.49733 6.38016 6.42941 5.44684 6.42548 4.28224Z"/>
</defs>
</svg>
