<svg width="47" height="42" viewBox="0 0 47 42" version="1.1" xmlns="http://www.w3.org/2000/svg" xmlns:xlink="http://www.w3.org/1999/xlink">
<title>slider</title>
<desc>Created using Figma</desc>
<g id="Canvas" transform="translate(-1393 -2329)">
<g id="slider">
<g id="Group">
<g id="Group">
<g id="Vector">
<use xlink:href="#path0_fill" transform="matrix(-1 0 0 1 1425.66 2339.06)" fill="#FFFFFF"/>
</g>
</g>
</g>
<g id="Group">
<g id="Group">
<g id="Vector">
<use xlink:href="#path1_fill" transform="matrix(-1 0 0 1 1440 2329)" fill="#FFFFFF"/>
</g>
</g>
</g>
<g id="Group">
<g id="Group">
<g id="Vector">
<use xlink:href="#path2_fill" transform="matrix(-1 0 0 1 1425.66 2356.14)" fill="#FFFFFF"/>
</g>
</g>
</g>
<g id="Group">
<g id="Group">
<g id="Vector">
<use xlink:href="#path3_fill" transform="matrix(-1 0 0 1 1425.66 2360.55)" fill="#FFFFFF"/>
</g>
</g>
</g>
<g id="Group">
<g id="Group">
<g id="Vector">
<use xlink:href="#path4_fill" transform="matrix(-1 0 0 1 1425.66 2364.96)" fill="#FFFFFF"/>
</g>
</g>
</g>
</g>
</g>
<defs>
<path id="path0_fill" d="M 5.05359 3.15848e-07C 2.2671 -9.12783e-05 -5.26666e-07 2.26192 -5.26666e-07 5.04235C -5.26666e-07 7.82278 2.26701 10.0848 5.05359 10.0848C 7.84017 10.0848 10.1072 7.82269 10.1072 5.04235C 10.1072 2.26201 7.84017 3.15848e-07 5.05359 3.15848e-07ZM 5.05359 8.73488C 3.01304 8.73488 1.3529 7.0784 1.3529 5.04235C 1.3529 3.0063 3.01304 1.34982 5.05359 1.34982C 7.09414 1.34982 8.75429 3.0063 8.75429 5.04235C 8.75429 7.0784 7.09414 8.73488 5.05359 8.73488Z"/>
<path id="path1_fill" d="M 46.9998 36.805C 47.0102 36.0511 46.5177 35.3744 45.8023 35.1592C 45.0017 34.9185 44.0042 34.2207 42.9938 33.1947C 41.3743 31.549 39.7634 29.1347 38.3354 26.2127C 36.1227 21.6862 33.1115 19.2929 30.9747 18.0822C 29.3021 17.1358 27.6439 16.7195 26.6518 16.5414L 26.6518 14.3578C 26.6518 13.985 26.349 13.6828 25.9754 13.6828C 25.6017 13.6828 25.2989 13.985 25.2989 14.3578L 25.2989 17.1197L 25.2989 22.27L 13.4838 22.27L 13.4838 18.3625L 13.4838 11.347C 13.4838 11.3464 13.4838 11.3457 13.4838 11.3451L 13.4838 7.94044L 25.2989 7.94044L 25.2989 12.3329C 25.2989 12.7057 25.6017 13.0079 25.9754 13.0079C 26.349 13.0079 26.6518 12.7057 26.6518 12.3329L 26.6518 7.91717C 27.1028 7.83336 27.4716 7.52002 27.6247 7.07047C 27.8046 6.54198 27.6342 5.98087 27.1905 5.64087L 20.1743 0.264936C 19.7134 -0.0883425 19.0695 -0.0882509 18.6086 0.264845L 16.3489 1.99625C 16.0526 2.22331 15.9969 2.64703 16.2244 2.9426C 16.452 3.23827 16.8767 3.29386 17.1729 3.0668L 19.3913 1.367L 26.2086 6.59052L 25.9754 6.59052L 12.8074 6.59052L 12.5741 6.59052L 15.3411 4.47039C 15.6374 4.24333 15.6931 3.81961 15.4656 3.52404C 15.2381 3.22847 14.8134 3.17278 14.5171 3.39984L 11.5923 5.64087C 11.1486 5.98078 10.9782 6.54198 11.1581 7.07047C 11.3111 7.52002 11.6799 7.83336 12.1309 7.91717L 12.1309 11.1486L 9.45599 15.1827C 9.45562 15.1833 9.45526 15.1839 9.4548 15.1845L 5.93348 20.495C 5.93311 20.4955 5.93274 20.4962 5.93228 20.4967L 0.112372 29.2737C -0.0938036 29.5846 -0.00824902 30.0034 0.303309 30.209C 0.418238 30.2848 0.547764 30.3211 0.675912 30.3211C 0.895306 30.3211 1.11057 30.2148 1.24065 30.0185L 2.84112 27.6048L 2.84112 32.3234L 0.562084 35.7982C 0.194438 36.3586 0.000104484 37.0089 0.000104484 37.6787L 0.000104484 39.4639C 0.000104484 39.9863 0.337274 40.4377 0.839126 40.587C 0.952128 40.6206 1.06642 40.6368 1.17914 40.6368C 1.56707 40.6368 1.93527 40.4444 2.15742 40.1057L 11.5008 25.8617C 11.6956 25.969 11.9089 26.0424 12.1309 26.0775L 12.1309 35.6412C 12.1309 36.014 12.4338 36.3161 12.8074 36.3161C 13.181 36.3161 13.4838 36.014 13.4838 35.6412L 13.4838 26.1019L 25.299 26.1019L 25.299 40.1929C 25.299 40.445 25.0935 40.6501 24.8408 40.6501L 13.942 40.6501C 13.6894 40.6501 13.4838 40.445 13.4838 40.1929L 13.4838 37.5309C 13.4838 37.1581 13.181 36.856 12.8074 36.856C 12.4338 36.856 12.1309 37.1581 12.1309 37.5309L 12.1309 40.1929C 12.1309 41.1894 12.9433 42 13.942 42L 24.8408 42C 25.8394 42 26.6519 41.1894 26.6519 40.1929L 26.6519 26.0771C 27.0528 26.0154 27.4223 25.8317 27.712 25.5416C 28.0377 25.2179 28.2309 24.7972 28.2676 24.3439C 29.5407 25.2115 31.0402 26.6844 32.2554 29.1714C 33.9996 32.7401 36.0443 35.7667 38.1684 37.924C 40.3794 40.17 42.6682 41.5027 44.9715 41.8851C 45.0647 41.9006 45.1581 41.9082 45.251 41.9082C 45.6467 41.9082 46.0329 41.7703 46.3415 41.513C 46.7232 41.1946 46.946 40.7275 46.9528 40.2312L 46.9659 39.2788C 46.9841 39.2233 46.9959 39.1649 46.999 39.1038C 47.0031 39.0248 46.9927 38.9486 46.9714 38.877L 46.9998 36.805ZM 10.6929 15.7639L 12.1309 13.5951L 12.1309 18.1612L 10.6929 20.3536L 10.6929 15.7639ZM 7.17044 21.076L 9.34005 17.8041L 9.34005 22.4162L 7.17044 25.7237L 7.17044 21.076ZM 4.19411 25.5646L 5.81754 23.1163L 5.81754 27.7861L 4.19411 30.2611L 4.19411 25.5646ZM 11.6932 22.4143C 11.6883 22.4163 11.6837 22.4188 11.6788 22.4209C 11.6311 22.4411 11.5843 22.4633 11.5384 22.4873C 11.5222 22.4958 11.5065 22.5051 11.4906 22.5141C 11.456 22.5334 11.4219 22.5537 11.3886 22.5753C 11.3718 22.5862 11.3552 22.5971 11.3387 22.6086C 11.3055 22.6315 11.2732 22.6557 11.2414 22.6808C 11.2274 22.6919 11.2131 22.7025 11.1993 22.714C 11.1549 22.7511 11.1115 22.7899 11.0701 22.8314C 10.7526 23.148 10.56 23.556 10.5168 23.9958C 10.5106 24.0586 10.5075 24.1221 10.5075 24.186C 10.5075 24.2335 10.5095 24.2807 10.513 24.3276C 10.5141 24.3428 10.5162 24.3579 10.5177 24.373C 10.5208 24.4049 10.5242 24.4367 10.5289 24.4683C 10.5315 24.4855 10.5348 24.5025 10.5378 24.5196C 10.543 24.5492 10.5486 24.5787 10.5553 24.6079C 10.5591 24.625 10.5634 24.6418 10.5677 24.6588C 10.5753 24.6882 10.5833 24.7174 10.5923 24.7464C 10.5947 24.7547 10.5966 24.7631 10.5992 24.7712L 1.3531 38.867L 1.3531 37.6787C 1.3531 37.2722 1.47105 36.8775 1.69412 36.5374L 7.05486 28.3648C 7.05486 28.3648 7.05496 28.3647 7.05496 28.3647L 12.1309 20.6262L 12.1309 22.2925C 12.1144 22.2951 12.0984 22.2991 12.0819 22.302C 12.0618 22.3056 12.0418 22.3095 12.0218 22.3137C 11.9821 22.3221 11.943 22.3321 11.9042 22.343C 11.8875 22.3476 11.8707 22.3518 11.8542 22.3569C 11.7997 22.3738 11.7459 22.3926 11.6932 22.4143ZM 26.7554 24.587C 26.6492 24.6934 26.507 24.752 26.3552 24.752L 25.9755 24.752L 12.8074 24.752L 12.4277 24.752C 12.2285 24.752 12.0481 24.6511 11.9427 24.4785C 11.8881 24.3902 11.8604 24.2918 11.8604 24.1859C 11.8604 24.0349 11.9194 23.8928 12.0276 23.7849C 12.1338 23.6784 12.2759 23.6199 12.4277 23.6199L 12.6054 23.6199L 12.8075 23.6199L 25.9755 23.6199L 26.3552 23.6199C 26.6681 23.6199 26.9225 23.8739 26.9225 24.1859C 26.9224 24.3374 26.8638 24.4793 26.7554 24.587ZM 45.6002 40.2126C 45.5982 40.3528 45.5203 40.4384 45.474 40.4771C 45.4281 40.5154 45.3305 40.5763 45.1936 40.5535C 43.1787 40.2189 41.1398 39.0159 39.1336 36.9779C 37.1104 34.9233 35.1525 32.0192 33.4715 28.5797C 31.2648 24.0637 28.1227 22.5242 26.652 22.0321L 26.652 21.088C 28.3188 21.5717 31.8243 23.1554 34.2822 28.1853C 35.9211 31.5386 37.8211 34.361 39.7769 36.3471C 41.5803 38.179 43.6688 39.3617 45.6077 39.6698L 45.6002 40.2126ZM 45.6262 38.3037C 44.0265 37.9961 42.2848 36.9685 40.7419 35.4011C 38.887 33.5174 37.0738 30.8176 35.4981 27.5936C 32.6346 21.7337 28.3803 20.1202 26.6845 19.6984C 26.6738 19.6957 26.6629 19.6933 26.6519 19.6911L 26.6519 17.9169C 27.5316 18.095 28.9274 18.4756 30.307 19.2563C 32.2772 20.3727 35.0585 22.5884 37.1194 26.8045C 38.6105 29.8555 40.308 32.3923 42.0287 34.1407C 43.2127 35.3431 44.3825 36.1423 45.4118 36.4518C 45.5524 36.4941 45.6491 36.6317 45.6469 36.7865L 45.6262 38.3037Z"/>
<path id="path2_fill" d="M 8.25831 6.48494e-07L 1.84897 6.48494e-07C 0.829475 6.48494e-07 2.24113e-07 0.827554 2.24113e-07 1.84489C 2.24113e-07 2.86223 0.829566 3.68969 1.84906 3.68969L 8.2584 3.68969C 9.27789 3.68969 10.1074 2.86213 10.1074 1.8448C 10.1074 0.827462 9.27789 6.48494e-07 8.25831 6.48494e-07ZM 8.2584 2.33986L 1.84906 2.33986C 1.57551 2.33986 1.35299 2.11784 1.35299 1.84489C 1.35299 1.57194 1.57551 1.34992 1.84906 1.34992L 8.2584 1.34992C 8.53195 1.34992 8.75447 1.57194 8.75447 1.84489C 8.75447 2.11784 8.53195 2.33986 8.2584 2.33986Z"/>
<path id="path3_fill" d="M 8.25831 1.14045e-06L 1.84897 1.14045e-06C 0.829474 1.14045e-06 -5.26666e-07 0.827646 -5.26666e-07 1.84489C -5.26666e-07 2.86214 0.829474 3.68978 1.84897 3.68978L 8.25831 3.68978C 9.2778 3.68978 10.1073 2.86223 10.1073 1.84489C 10.1073 0.827646 9.27789 1.14045e-06 8.25831 1.14045e-06ZM 8.25831 2.33986L 1.84897 2.33986C 1.57541 2.33986 1.3529 2.11784 1.3529 1.84489C 1.3529 1.57194 1.57541 1.34991 1.84897 1.34991L 8.25831 1.34991C 8.53186 1.34991 8.75438 1.57194 8.75438 1.84489C 8.75438 2.11784 8.53186 2.33986 8.25831 2.33986Z"/>
<path id="path4_fill" d="M 8.25831 -1.16282e-06L 1.84897 -1.16282e-06C 0.829474 -1.16282e-06 -5.26666e-07 0.827644 -5.26666e-07 1.84489C -5.26666e-07 2.86213 0.829474 3.68978 1.84897 3.68978L 8.25831 3.68978C 9.2778 3.68978 10.1073 2.86222 10.1073 1.84489C 10.1073 0.827644 9.27789 -1.16282e-06 8.25831 -1.16282e-06ZM 8.25831 2.33987L 1.84897 2.33987C 1.57541 2.33987 1.3529 2.11784 1.3529 1.84489C 1.3529 1.57194 1.57541 1.34991 1.84897 1.34991L 8.25831 1.34991C 8.53186 1.34991 8.75438 1.57194 8.75438 1.84489C 8.75438 2.11784 8.53186 2.33987 8.25831 2.33987Z"/>
</defs>
</svg>
