<svg width="19" height="19" viewBox="0 0 19 19" version="1.1" xmlns="http://www.w3.org/2000/svg" xmlns:xlink="http://www.w3.org/1999/xlink">
<title>inst</title>
<desc>Created using Figma</desc>
<g id="Canvas" transform="translate(-772 -3679)">
<g id="inst">
<g id="Group">
<g id="Vector">
<use xlink:href="#path0_fill" transform="translate(772.457 3679.67)" fill="#FFFFFF"/>
</g>
<g id="Vector">
<use xlink:href="#path1_fill" transform="translate(776.733 3683.91)" fill="#FFFFFF"/>
</g>
<g id="Vector">
<use xlink:href="#path2_fill" transform="translate(784.869 3682.59)" fill="#FFFFFF"/>
</g>
</g>
</g>
</g>
<defs>
<path id="path0_fill" d="M 12.7754 0L 4.86925 0C 2.18435 0 0 2.16653 0 4.82941L 0 12.6707C 0 15.3337 2.18435 17.5001 4.86925 17.5001L 12.7754 17.5001C 15.4605 17.5001 17.6449 15.3336 17.6449 12.6707L 17.6449 4.82941C 17.645 2.16653 15.4605 0 12.7754 0ZM 16.0795 12.6707C 16.0795 14.4776 14.5973 15.9475 12.7755 15.9475L 4.86925 15.9475C 3.04758 15.9476 1.56554 14.4776 1.56554 12.6707L 1.56554 4.82941C 1.56554 3.02269 3.04758 1.5527 4.86925 1.5527L 12.7754 1.5527C 14.5972 1.5527 16.0793 3.02269 16.0793 4.82941L 16.0793 12.6707L 16.0795 12.6707Z"/>
<path id="path1_fill" d="M 4.54664 1.26359e-07C 2.03959 1.26359e-07 -1.5607e-07 2.02285 -1.5607e-07 4.50935C -1.5607e-07 6.99573 2.03959 9.01848 4.54664 9.01848C 7.0537 9.01848 9.09328 6.99573 9.09328 4.50935C 9.09328 2.02285 7.0537 1.26359e-07 4.54664 1.26359e-07ZM 4.54664 7.46568C 2.90293 7.46568 1.56554 6.13947 1.56554 4.50924C 1.56554 2.87891 2.90282 1.55259 4.54664 1.55259C 6.19046 1.55259 7.52774 2.87891 7.52774 4.50924C 7.52774 6.13947 6.19035 7.46568 4.54664 7.46568Z"/>
<path id="path2_fill" d="M 1.14806 -5.68615e-08C 0.846436 -5.68615e-08 0.550131 0.121111 0.337113 0.333313C 0.123052 0.544479 -2.48438e-07 0.838457 -2.48438e-07 1.13865C -2.48438e-07 1.4379 0.123156 1.73178 0.337113 1.94398C 0.550026 2.15514 0.846436 2.27729 1.14806 2.27729C 1.45073 2.27729 1.7461 2.15514 1.96006 1.94398C 2.17401 1.73178 2.29613 1.4378 2.29613 1.13865C 2.29613 0.838457 2.17401 0.544479 1.96006 0.333313C 1.74714 0.121111 1.45073 -5.68615e-08 1.14806 -5.68615e-08Z"/>
</defs>
</svg>
