<svg width="20" height="20" viewBox="0 0 20 20" version="1.1" xmlns="http://www.w3.org/2000/svg" xmlns:xlink="http://www.w3.org/1999/xlink">
<title>Vector</title>
<desc>Created using Figma</desc>
<g id="Canvas" transform="translate(-552 86)">
<g id="Vector">
<use xlink:href="#path0_fill" transform="translate(552 -86)" fill="#636886"/>
</g>
</g>
<defs>
<path id="path0_fill" d="M 19.6959 18.2168L 14.7656 13.2662C 16.0332 11.8113 16.7278 9.98069 16.7278 8.07499C 16.7278 3.62251 12.9757 0 8.36391 0C 3.75212 0 0 3.62251 0 8.07499C 0 12.5275 3.75212 16.15 8.36391 16.15C 10.0952 16.15 11.7451 15.6458 13.1557 14.6888L 18.1235 19.677C 18.3311 19.8852 18.6104 20 18.9097 20C 19.193 20 19.4617 19.8957 19.6657 19.7061C 20.0992 19.3034 20.113 18.6357 19.6959 18.2168ZM 8.36391 2.10652C 11.7727 2.10652 14.5459 4.78391 14.5459 8.07499C 14.5459 11.3661 11.7727 14.0435 8.36391 14.0435C 4.95507 14.0435 2.18189 11.3661 2.18189 8.07499C 2.18189 4.78391 4.95507 2.10652 8.36391 2.10652Z"/>
</defs>
</svg>
