<svg width="22" height="18" viewBox="0 0 22 18" version="1.1" xmlns="http://www.w3.org/2000/svg" xmlns:xlink="http://www.w3.org/1999/xlink">
<title>tw</title>
<desc>Created using Figma</desc>
<g id="Canvas" transform="translate(-711 -3679)">
<g id="tw">
<g id="Group">
<g id="Vector">
<use xlink:href="#path0_fill" transform="translate(711.743 3679.67)" fill="#FFFFFF"/>
</g>
</g>
</g>
</g>
<defs>
<path id="path0_fill" d="M 21.06 2.00477C 20.2851 2.34479 19.4525 2.57464 18.5785 2.67798C 19.4705 2.14885 20.1556 1.31101 20.4782 0.31259C 19.6433 0.8026 18.7187 1.15837 17.7345 1.35008C 16.9464 0.519152 15.8234 5.21691e-08 14.5807 5.21691e-08C 12.1945 5.21691e-08 10.26 1.91417 10.26 4.27528C 10.26 4.61038 10.2982 4.93669 10.3719 5.24964C 6.78099 5.07129 3.59727 3.36922 1.46626 0.782493C 1.09434 1.41394 0.881229 2.14837 0.881229 2.93192C 0.881229 4.41525 1.644 5.7239 2.80336 6.4906C 2.0951 6.46838 1.42887 6.27606 0.846389 5.95582C 0.845978 5.97365 0.845978 5.99156 0.845978 6.00959C 0.845978 8.08107 2.33536 9.80902 4.31187 10.2019C 3.94937 10.2995 3.56761 10.3519 3.17356 10.3519C 2.89513 10.3519 2.62448 10.3251 2.36061 10.2751C 2.91047 11.9736 4.5061 13.2099 6.39681 13.2443C 4.91808 14.3911 3.05506 15.0745 1.03071 15.0745C 0.681941 15.0745 0.338029 15.0543 1.95614e-12 15.0146C 1.9121 16.2278 4.18325 16.9356 6.62324 16.9356C 14.5706 16.9356 18.9165 10.4208 18.9165 4.77099C 18.9165 4.58563 18.9122 4.40125 18.904 4.21785C 19.7483 3.6151 20.4808 2.86211 21.06 2.00477Z"/>
</defs>
</svg>
