<svg width="50" height="50" viewBox="0 0 50 50" version="1.1" xmlns="http://www.w3.org/2000/svg" xmlns:xlink="http://www.w3.org/1999/xlink">
<title>school</title>
<desc>Created using Figma</desc>
<g id="Canvas" transform="translate(-1757 -2324)">
<g id="school">
<g id="Group">
<g id="Group">
<g id="Vector">
<use xlink:href="#path0_fill" transform="translate(1757 2324)" fill="#FFFFFF"/>
</g>
</g>
</g>
<g id="Group">
<g id="Group">
<g id="Vector">
<use xlink:href="#path1_fill" transform="translate(1796.17 2346.5)" fill="#FFFFFF"/>
</g>
</g>
</g>
<g id="Group">
<g id="Group">
<g id="Vector">
<use xlink:href="#path1_fill" transform="translate(1799.5 2346.5)" fill="#FFFFFF"/>
</g>
</g>
</g>
<g id="Group">
<g id="Group">
<g id="Vector">
<use xlink:href="#path1_fill" transform="translate(1796.17 2349.83)" fill="#FFFFFF"/>
</g>
</g>
</g>
<g id="Group">
<g id="Group">
<g id="Vector">
<use xlink:href="#path1_fill" transform="translate(1799.5 2349.83)" fill="#FFFFFF"/>
</g>
</g>
</g>
<g id="Group">
<g id="Group">
<g id="Vector">
<use xlink:href="#path1_fill" transform="translate(1796.17 2353.17)" fill="#FFFFFF"/>
</g>
</g>
</g>
<g id="Group">
<g id="Group">
<g id="Vector">
<use xlink:href="#path1_fill" transform="translate(1799.5 2353.17)" fill="#FFFFFF"/>
</g>
</g>
</g>
<g id="Group">
<g id="Group">
<g id="Vector">
<use xlink:href="#path1_fill" transform="translate(1796.17 2356.5)" fill="#FFFFFF"/>
</g>
</g>
</g>
<g id="Group">
<g id="Group">
<g id="Vector">
<use xlink:href="#path1_fill" transform="translate(1799.5 2356.5)" fill="#FFFFFF"/>
</g>
</g>
</g>
<g id="Group">
<g id="Group">
<g id="Vector">
<use xlink:href="#path1_fill" transform="translate(1796.17 2359.83)" fill="#FFFFFF"/>
</g>
</g>
</g>
<g id="Group">
<g id="Group">
<g id="Vector">
<use xlink:href="#path1_fill" transform="translate(1799.5 2359.83)" fill="#FFFFFF"/>
</g>
</g>
</g>
<g id="Group">
<g id="Group">
<g id="Vector">
<use xlink:href="#path1_fill" transform="translate(1762.83 2346.5)" fill="#FFFFFF"/>
</g>
</g>
</g>
<g id="Group">
<g id="Group">
<g id="Vector">
<use xlink:href="#path1_fill" transform="translate(1766.17 2346.5)" fill="#FFFFFF"/>
</g>
</g>
</g>
<g id="Group">
<g id="Group">
<g id="Vector">
<use xlink:href="#path1_fill" transform="translate(1762.83 2349.83)" fill="#FFFFFF"/>
</g>
</g>
</g>
<g id="Group">
<g id="Group">
<g id="Vector">
<use xlink:href="#path1_fill" transform="translate(1766.17 2349.83)" fill="#FFFFFF"/>
</g>
</g>
</g>
<g id="Group">
<g id="Group">
<g id="Vector">
<use xlink:href="#path1_fill" transform="translate(1762.83 2353.17)" fill="#FFFFFF"/>
</g>
</g>
</g>
<g id="Group">
<g id="Group">
<g id="Vector">
<use xlink:href="#path1_fill" transform="translate(1766.17 2353.17)" fill="#FFFFFF"/>
</g>
</g>
</g>
<g id="Group">
<g id="Group">
<g id="Vector">
<use xlink:href="#path1_fill" transform="translate(1762.83 2356.5)" fill="#FFFFFF"/>
</g>
</g>
</g>
<g id="Group">
<g id="Group">
<g id="Vector">
<use xlink:href="#path1_fill" transform="translate(1766.17 2356.5)" fill="#FFFFFF"/>
</g>
</g>
</g>
<g id="Group">
<g id="Group">
<g id="Vector">
<use xlink:href="#path1_fill" transform="translate(1762.83 2359.83)" fill="#FFFFFF"/>
</g>
</g>
</g>
<g id="Group">
<g id="Group">
<g id="Vector">
<use xlink:href="#path1_fill" transform="translate(1766.17 2359.83)" fill="#FFFFFF"/>
</g>
</g>
</g>
<g id="Group">
<g id="Group">
<g id="Vector">
<use xlink:href="#path2_fill" transform="translate(1776.17 2339)" fill="#FFFFFF"/>
</g>
</g>
</g>
<g id="Group">
<g id="Group">
<g id="Vector">
<use xlink:href="#path3_fill" transform="translate(1779.5 2341.5)" fill="#FFFFFF"/>
</g>
</g>
</g>
</g>
</g>
<defs>
<path id="path0_fill" d="M 49.1667 45L 47.5 45L 47.5 20C 47.5 19.54 47.1275 19.1667 46.6667 19.1667L 37.5 19.1667L 37.5 17.5C 37.5 17.2167 37.3558 16.9525 37.1175 16.7992L 25.8333 9.545L 25.8333 6.66667L 35 6.66667C 35.4608 6.66667 35.8333 6.29333 35.8333 5.83333L 35.8333 0.833333C 35.8333 0.373333 35.4608 0 35 0L 25 0C 24.5392 0 24.1667 0.373333 24.1667 0.833333L 24.1667 5.83333L 24.1667 9.545L 12.8825 16.7992C 12.6442 16.9525 12.5 17.2167 12.5 17.5L 12.5 19.1667L 3.33333 19.1667C 2.8725 19.1667 2.5 19.54 2.5 20L 2.5 45L 0.833333 45C 0.3725 45 0 45.3733 0 45.8333L 0 49.1667C 0 49.6267 0.3725 50 0.833333 50L 49.1667 50C 49.6275 50 50 49.6267 50 49.1667L 50 45.8333C 50 45.3733 49.6275 45 49.1667 45ZM 25.8333 1.66667L 34.1667 1.66667L 34.1667 5L 25.8333 5L 25.8333 1.66667ZM 37.5 20.8333L 45.8333 20.8333L 45.8333 45L 37.5 45L 37.5 20.8333ZM 14.1667 20L 14.1667 17.955L 25 10.9908L 35.8333 17.955L 35.8333 20L 35.8333 45L 29.1667 45L 29.1667 37.5C 29.1667 35.2025 27.2975 33.3333 25 33.3333C 22.7025 33.3333 20.8333 35.2025 20.8333 37.5L 20.8333 45L 14.1667 45L 14.1667 20ZM 27.5 37.5L 27.5 45L 22.5 45L 22.5 37.5C 22.5 36.1217 23.6217 35 25 35C 26.3783 35 27.5 36.1217 27.5 37.5ZM 4.16667 20.8333L 12.5 20.8333L 12.5 45L 4.16667 45L 4.16667 20.8333ZM 48.3333 48.3333L 1.66667 48.3333L 1.66667 46.6667L 3.33333 46.6667L 13.3333 46.6667L 21.6667 46.6667L 28.3333 46.6667L 36.6667 46.6667L 46.6667 46.6667L 48.3333 46.6667L 48.3333 48.3333Z"/>
<path id="path1_fill" d="M 1.66667 0L 0 0L 0 1.66667L 1.66667 1.66667L 1.66667 0Z"/>
<path id="path2_fill" d="M 5.83333 0C 2.6175 0 0 2.61667 0 5.83333C 0 9.05 2.6175 11.6667 5.83333 11.6667C 9.04917 11.6667 11.6667 9.05 11.6667 5.83333C 11.6667 2.61667 9.04917 0 5.83333 0ZM 5.83333 10C 3.53583 10 1.66667 8.13083 1.66667 5.83333C 1.66667 3.53583 3.53583 1.66667 5.83333 1.66667C 8.13083 1.66667 10 3.53583 10 5.83333C 10 8.13083 8.13083 10 5.83333 10Z"/>
<path id="path3_fill" d="M 1.66667 0L 1.66667 2.5L 0 2.5L 0 4.16667L 2.5 4.16667C 2.96083 4.16667 3.33333 3.79333 3.33333 3.33333L 3.33333 0L 1.66667 0Z"/>
</defs>
</svg>
